<?xml version="1.0" encoding="UTF-8"?>
<svg xmlns="http://www.w3.org/2000/svg" version="1.1" xmlns:xlink="http://www.w3.org/1999/xlink" viewBox="0 0 487.6 124.7">
  <defs>
    <style>
      .cls-1, .cls-2 {
        fill: #033f85;
      }

      .cls-1, .cls-3 {
        fill-rule: evenodd;
      }

      .cls-4, .cls-3 {
        fill: #1d1d1b;
      }

      .cls-5 {
        fill: url(#linear-gradient);
      }
    </style>
    <linearGradient id="linear-gradient" x1="40.8" y1="40.8" x2="85" y2="84.9" gradientUnits="userSpaceOnUse">
      <stop offset="0" stop-color="#f2f2f2"/>
      <stop offset="1" stop-color="#666"/>
    </linearGradient>
  </defs>
  <!-- Generator: Adobe Illustrator 28.7.1, SVG Export Plug-In . SVG Version: 1.2.0 Build 142)  -->
  <g>
    <g id="Ebene_1">
      <circle class="cls-5" cx="62.9" cy="62.8" r="31.2"/>
      <path class="cls-2" d="M59.3,43.4c0-2,1.6-3.7,3.7-3.7s3.7,1.6,3.7,3.7-1.6,3.7-3.7,3.7-3.7-1.6-3.7-3.7h0Z"/>
      <path class="cls-2" d="M72.4,47.8c0,1.1-.4,2.1-1,3l-5.8,8c-.6.8-1.6,1.4-2.7,1.4s-2.1-.5-2.7-1.4l-5.8-8c-.6-.8-1-1.9-1-3,0-2.7,2.1-4.9,4.7-5,0,.2,0,.4,0,.6,0,.6.1,1.2.3,1.7-1.5,0-2.7,1.2-2.7,2.7s.2,1.2.5,1.6l2.5,3.4,1.5,2,1.8,2.5c.3.4,1,.5,1.4.2,0,0,.2-.1.2-.2l1.9-2.5,1.5-2,2.5-3.4c.3-.5.5-1,.5-1.6,0-1.5-1.2-2.7-2.6-2.7.2-.5.3-1.1.3-1.7s0-.4,0-.6c2.6.2,4.6,2.4,4.6,5h0Z"/>
      <path class="cls-2" d="M42.8,60.8c-1.9-.6-3-2.7-2.4-4.6.6-1.9,2.7-3,4.6-2.4,1.9.6,3,2.7,2.4,4.6-.6,1.9-2.7,3-4.6,2.4h0Z"/>
      <path class="cls-2" d="M51.2,49.6c1.1.3,1.9,1,2.5,1.8l5.8,8c.6.8.8,1.9.5,3-.3,1-1.1,1.8-2.1,2.1l-9.4,3.1c-1,.3-2.1.3-3.1,0-2.5-.8-4-3.5-3.3-6,.2,0,.3.1.5.2.6.2,1.2.3,1.7.2-.4,1.4.4,2.9,1.8,3.4.6.2,1.2.2,1.7,0l4-1.3,2.4-.8,3-1c.5-.2.8-.7.6-1.3,0-.1,0-.2-.1-.3l-1.8-2.5-1.5-2-2.5-3.4c-.3-.5-.8-.8-1.4-1-1.4-.5-2.9.3-3.4,1.7-.4-.4-1-.6-1.5-.8-.2,0-.4-.1-.5-.1,1-2.4,3.7-3.7,6.2-2.9h0Z"/>
      <path class="cls-2" d="M54.2,81.6c-1.2,1.6-3.5,2-5.1.8-1.6-1.2-2-3.5-.8-5.1,1.2-1.6,3.5-2,5.1-.8,1.6,1.2,2,3.5.8,5.1h0Z"/>
      <path class="cls-2" d="M46.3,70.2c.6-.9,1.5-1.5,2.5-1.8l9.4-3c1-.3,2.1-.2,3,.5.9.6,1.4,1.6,1.4,2.7v9.9c0,1-.3,2.1-1,3-1.6,2.2-4.5,2.7-6.8,1.3.1-.1.2-.3.4-.4.4-.5.6-1,.8-1.6,1.2.9,2.9.6,3.8-.6.4-.5.5-1.1.5-1.6v-4.2s0-2.5,0-2.5v-3.1c0-.6-.5-1-1-1s-.2,0-.3,0l-3,1-2.4.8-4,1.3c-.5.2-1,.5-1.4,1-.9,1.2-.6,2.9.5,3.8-.5.3-.9.7-1.3,1.2-.1.2-.2.3-.3.5-2-1.7-2.4-4.7-.8-6.8h0Z"/>
      <path class="cls-2" d="M77.7,77.3c1.2,1.6.8,3.9-.8,5.1-1.6,1.2-3.9.8-5.1-.8-1.2-1.6-.8-3.9.8-5.1,1.6-1.2,3.9-.8,5.1.8h0Z"/>
      <path class="cls-2" d="M64.5,81.3c-.6-.9-1-1.9-1-3v-9.9c0-1,.5-2,1.4-2.7.9-.6,2-.8,3-.5l9.4,3c1,.3,1.9.9,2.5,1.8,1.6,2.2,1.2,5.1-.8,6.8,0-.2-.2-.3-.3-.5-.4-.5-.8-.9-1.3-1.2,1.2-.9,1.4-2.6.6-3.8-.4-.5-.8-.8-1.4-1l-4-1.3-2.4-.8-3-1c-.5-.2-1.1.1-1.3.6,0,.1,0,.2,0,.3v3.1s0,2.5,0,2.5v4.2c0,.6.2,1.1.5,1.6.9,1.2,2.5,1.5,3.7.7.1.6.4,1.1.8,1.6.1.2.2.3.4.4-2.2,1.4-5.1.8-6.7-1.3h0Z"/>
      <path class="cls-2" d="M80.7,53.7c1.9-.6,4,.4,4.6,2.4.6,1.9-.4,4-2.4,4.6-1.9.6-4-.4-4.6-2.4-.6-1.9.4-4,2.4-4.6h0Z"/>
      <path class="cls-2" d="M80.6,67.4c-1.1.3-2.1.3-3.1,0l-9.4-3.1c-1-.3-1.8-1.1-2.1-2.1-.3-1-.1-2.1.5-3l5.8-8c.6-.8,1.5-1.5,2.5-1.8,2.5-.8,5.3.5,6.2,2.9-.2,0-.4,0-.5.1-.6.2-1.1.5-1.5.8-.5-1.4-2-2.2-3.4-1.7-.6.2-1,.5-1.4,1l-2.5,3.4-1.5,2-1.8,2.5c-.3.5-.2,1.1.2,1.4,0,0,.2.1.3.1l3,1,2.4.8,4,1.3c.5.2,1.1.2,1.7,0,1.4-.5,2.2-1.9,1.8-3.3.6,0,1.2,0,1.7-.2.2,0,.4-.1.5-.2.6,2.5-.8,5.1-3.3,6h0Z"/>
      <path class="cls-1" d="M31.5,62.8c0-17.4,14.1-31.5,31.5-31.5s31.5,14.1,31.5,31.5-14.1,31.5-31.5,31.5-31.5-14.1-31.5-31.5h0ZM32,62.8c0-17,13.9-30.8,31-30.8s30.9,13.8,30.9,30.8-13.9,30.8-30.9,30.8-31-13.8-31-30.8h0Z"/>
      <path class="cls-1" d="M34.1,62.9c0-16,13-29,29-29s29,13,29,29-13,29-29,29-29-13-29-29h0ZM36.6,62.9c0-14.6,11.9-26.5,26.5-26.5s26.5,11.9,26.5,26.5-11.9,26.5-26.5,26.5-26.5-11.9-26.5-26.5h0Z"/>
      <g>
        <path class="cls-4" d="M118.9,47h7v5.8c0,2.4,0,3.2-2.8,3.2v.5h10.4v-.5c-2.8,0-2.8-.8-2.8-3.2v-12.4c0-2.4,0-3.2,2.8-3.2v-.5h-10.4v.5c2.8,0,2.8.8,2.8,3.2v5.3h-7v-5.3c0-2.4,0-3.2,2.8-3.2v-.5h-10.4v.5c2.8,0,2.8.8,2.8,3.2v12.4c0,2.4,0,3.2-2.8,3.2v.5h10.4v-.5c-2.8,0-2.8-.8-2.8-3.2v-5.8h0Z"/>
        <path class="cls-3" d="M141.2,33.4c0,1.1.9,2,2,2s2-.9,2-2-.9-2-2-2-2,.9-2,2h0ZM146.7,33.4c0,1.1.9,2,2,2s2-.9,2-2-.9-2-2-2-2,.9-2,2h0ZM147.5,50.8l1.3,3c.2.5.3.7.3,1.2,0,1-1.5,1-2.3,1v.5h9.7v-.5c-1.7,0-2.4-1.9-3-3.2l-7.3-16.7h-.3l-7,15.6c-.7,1.6-1.6,4.1-3.6,4.2v.5h6.7v-.5c-1.5,0-2.7-.2-2.7-1.7s.3-1.2.6-1.9l.7-1.6h7ZM147.1,49.8h-6l3-6.8,3,6.8h0Z"/>
        <path class="cls-4" d="M175.6,36.6h-6.6v.5c1.1,0,2.6.2,2.6,1.5s-.2,1.4-.7,2.3l-4.3,9.6-4.6-10.6c-.2-.5-.6-1.3-.6-1.8,0-1,1.2-1,2.4-1v-.5h-9.6v.5c1.5,0,1.9,1,2.2,1.6l7.9,18.2h.5l7-15.5c1.3-2.9,2-4.1,3.6-4.3v-.5h0Z"/>
        <path class="cls-4" d="M195.2,36.1h-.5c-.3.6-.7,1.4-1.5,1.4s-1.2-.4-2.1-.7c-.9-.4-2.2-.7-4.4-.7-6.1,0-11,4.5-11,10.7s4.6,10.1,11.1,10.1,6-.1,8.5-1.7v-3.4c0-2.4,0-3.2,2.4-3.2v-.5h-9.8v.5c2.8,0,2.8.8,2.8,3.2v3.3c-1.1.4-2.1.6-3.3.6-5.4,0-6.4-4.9-6.4-9.2s1.3-9.3,6.4-9.3,6.3,2.6,7.4,5.9h.5v-7h0Z"/>
      </g>
      <g>
        <path class="cls-4" d="M219.5,47v6.4c0,1.1,0,1.7.2,2,.1.3.3.5.7.7.3.2.8.3,1.4.3h.7v.6h-10.9v-.6h.7c.6,0,1.1-.1,1.5-.3.3-.1.5-.4.6-.7.1-.2.2-.9.2-1.9v-13.7c0-1.1,0-1.7-.2-2-.1-.3-.3-.5-.7-.7-.3-.2-.8-.3-1.4-.3h-.7v-.6h10.9v.6h-.7c-.6,0-1.1.1-1.5.3-.3.1-.5.4-.6.7-.1.2-.2.9-.2,1.9v5.9h7.3v-5.9c0-1.1,0-1.7-.2-2-.1-.3-.3-.5-.7-.7-.3-.2-.8-.3-1.4-.3h-.7v-.6h10.9v.6h-.7c-.6,0-1.1.1-1.5.3-.3.1-.5.4-.6.7-.1.2-.2.9-.2,1.9v13.7c0,1.1,0,1.7.2,2,.1.3.3.5.7.7.3.2.8.3,1.4.3h.7v.6h-10.9v-.6h.7c.6,0,1.1-.1,1.5-.3.3-.1.5-.4.6-.7.1-.2.2-.9.2-1.9v-6.4h-7.3Z"/>
        <path class="cls-4" d="M245,54.9c-1.7,1.5-3.3,2.3-4.7,2.3s-1.5-.3-2-.8c-.5-.5-.8-1.2-.8-2s.5-2.1,1.4-3c.9-.9,3-2,6.2-3.5v-1.4c0-1.1,0-1.8-.2-2-.1-.3-.3-.5-.7-.7-.3-.2-.7-.3-1.1-.3-.7,0-1.2.1-1.6.4-.3.2-.4.4-.4.6s.1.5.4.8c.4.4.6.9.6,1.3s-.2.9-.6,1.3c-.4.4-.9.5-1.5.5s-1.2-.2-1.6-.6c-.4-.4-.7-.8-.7-1.4s.3-1.4.9-2.1c.6-.7,1.4-1.2,2.4-1.5,1-.4,2.1-.5,3.3-.5s2.4.3,3.2.9c.8.6,1.3,1.2,1.5,1.9.1.4.2,1.4.2,3v5.6c0,.7,0,1.1,0,1.2s.1.3.2.4c.1,0,.2.1.4.1.3,0,.5-.2.8-.6l.5.4c-.5.8-1,1.3-1.6,1.7-.5.3-1.2.5-1.9.5s-1.5-.2-1.9-.6c-.5-.4-.7-1-.8-1.7ZM245,53.7v-4.8c-1.2.7-2.2,1.5-2.8,2.3-.4.6-.6,1.1-.6,1.7s.2.9.5,1.2c.3.3.6.4,1.1.4s1.1-.3,1.8-.9Z"/>
        <path class="cls-4" d="M266.8,42.6v11.2c0,1.1.1,1.8.3,2,.2.3.6.4,1.2.5v.6h-5.8v-1.9c-.7.8-1.4,1.4-2.1,1.8-.7.4-1.5.6-2.3.6s-1.5-.2-2.2-.7c-.6-.5-1.1-1.1-1.3-1.7-.2-.7-.3-1.8-.3-3.5v-5.7c0-1.1,0-1.8-.3-2s-.6-.4-1.2-.5v-.6h5.8v9.8c0,1,0,1.7.1,2,0,.3.3.5.5.7.2.2.5.2.7.2s.7,0,1-.3c.4-.3.9-.8,1.5-1.6v-7.7c0-1.1,0-1.8-.3-2-.2-.3-.6-.4-1.2-.5v-.6h5.8Z"/>
        <path class="cls-4" d="M280,42.2l.2,4.9h-.5c-.6-1.5-1.3-2.4-1.9-3-.7-.5-1.3-.8-2-.8s-.8.1-1.1.4c-.3.3-.4.6-.4,1s.1.5.3.8c.3.4,1.2,1.1,2.7,2.2,1.5,1,2.5,1.9,3,2.6.5.7.7,1.5.7,2.4s-.2,1.6-.6,2.3c-.4.8-1,1.4-1.7,1.8-.7.4-1.5.6-2.4.6s-1.6-.2-2.7-.6c-.3-.1-.5-.2-.6-.2-.3,0-.6.3-.8.8h-.5l-.2-5.2h.5c.5,1.4,1.1,2.4,1.9,3,.8.7,1.6,1,2.3,1s.9-.2,1.2-.5c.3-.3.5-.7.5-1.1s-.2-.9-.5-1.3c-.3-.4-1-.9-2.1-1.6-1.6-1.1-2.6-1.9-3-2.5-.7-.8-1-1.8-1-2.8s.4-2.1,1.1-3c.8-.9,1.9-1.3,3.3-1.3s1.5.2,2.3.6c.3.2.5.2.7.2s.3,0,.4-.1c.1,0,.3-.3.5-.7h.5Z"/>
        <path class="cls-4" d="M291.6,54.9c-1.7,1.5-3.3,2.3-4.7,2.3s-1.5-.3-2-.8c-.5-.5-.8-1.2-.8-2s.5-2.1,1.4-3c.9-.9,3-2,6.2-3.5v-1.4c0-1.1,0-1.8-.2-2-.1-.3-.3-.5-.7-.7-.3-.2-.7-.3-1.1-.3-.7,0-1.2.1-1.6.4-.3.2-.4.4-.4.6s.1.5.4.8c.4.4.6.9.6,1.3s-.2.9-.6,1.3c-.4.4-.9.5-1.5.5s-1.2-.2-1.6-.6c-.4-.4-.7-.8-.7-1.4s.3-1.4.9-2.1c.6-.7,1.4-1.2,2.4-1.5,1-.4,2.1-.5,3.3-.5s2.4.3,3.2.9c.8.6,1.3,1.2,1.5,1.9.1.4.2,1.4.2,3v5.6c0,.7,0,1.1,0,1.2,0,.2.1.3.2.4.1,0,.2.1.4.1.3,0,.5-.2.8-.6l.5.4c-.5.8-1,1.3-1.6,1.7-.5.3-1.2.5-1.9.5s-1.5-.2-1.9-.6c-.5-.4-.7-1-.8-1.7ZM287.6,36c.6,0,1.1.2,1.5.6.4.4.6.9.6,1.4s-.2,1-.6,1.4c-.4.4-.9.6-1.4.6s-1-.2-1.4-.6c-.4-.4-.6-.9-.6-1.4s.2-1,.6-1.4c.4-.4.9-.6,1.4-.6ZM291.6,53.7v-4.8c-1.2.7-2.2,1.5-2.8,2.3-.4.6-.6,1.1-.6,1.7s.2.9.5,1.2c.3.3.6.4,1.1.4s1.1-.3,1.8-.9ZM293.3,36c.6,0,1.1.2,1.5.6.4.4.6.9.6,1.4s-.2,1-.6,1.4c-.4.4-.9.6-1.4.6s-1-.2-1.4-.6c-.4-.4-.6-.9-.6-1.4s.2-1,.6-1.4c.4-.4.9-.6,1.4-.6Z"/>
        <path class="cls-4" d="M305.9,42.6v3.3c1-1.5,1.8-2.5,2.5-3,.7-.5,1.4-.7,2.1-.7s1,.2,1.4.5c.3.4.5.9.5,1.5s-.2,1.2-.5,1.6c-.3.4-.7.6-1.2.6s-1-.2-1.4-.5c-.4-.3-.6-.5-.7-.6-.1,0-.2,0-.4,0-.3,0-.6.1-.8.3-.4.3-.7.8-1,1.5-.3,1-.5,2.1-.5,3.3v4.2c0,.6,0,1,.1,1.1.1.3.3.5.5.6.2.1.6.2,1.2.2v.6h-7.7v-.6c.6,0,1-.2,1.3-.5.2-.3.3-1.1.3-2.3v-7.9c0-.8,0-1.3-.1-1.6-.1-.3-.3-.5-.4-.6-.2-.1-.5-.2-1-.3v-.6h5.9Z"/>
        <path class="cls-4" d="M326.5,57h-12.5v-.3l7.9-13.1h-2.3c-1,0-1.7,0-2.1.3-.4.2-.8.5-1,.9-.3.4-.5,1.1-.8,2.1h-.5v-4.2h12.1v.4l-7.8,13h1c2,0,3.4-.3,4.3-.8.9-.6,1.5-1.6,2-3.1h.4l-.4,4.9Z"/>
        <path class="cls-4" d="M335.7,37.4v5.2h3.4v1.5h-3.4v8.9c0,.8,0,1.4.1,1.6,0,.2.2.4.4.6.2.1.4.2.5.2.7,0,1.3-.5,1.9-1.5l.5.3c-.8,2-2.2,2.9-4,2.9s-1.7-.3-2.3-.8c-.6-.5-1-1.1-1.2-1.7-.1-.3-.2-1.3-.2-2.8v-7.7h-1.9v-.5c1.3-.9,2.4-1.9,3.3-2.9.9-1,1.7-2.1,2.4-3.4h.5Z"/>
        <path class="cls-4" d="M346.9,36.2v17.8c0,1,.1,1.7.4,1.9.2.3.7.4,1.4.5v.6h-7.8v-.6c.6,0,1.1-.2,1.4-.6.2-.2.3-.9.3-1.9v-14.9c0-1-.1-1.6-.4-1.9-.2-.3-.7-.4-1.4-.5v-.6h6Z"/>
        <path class="cls-4" d="M356.9,42.6v11.4c0,1,.1,1.7.4,1.9.2.3.7.4,1.4.5v.6h-7.7v-.6c.6,0,1.1-.2,1.4-.6.2-.2.3-.9.3-1.9v-8.4c0-1-.1-1.7-.4-1.9-.2-.3-.7-.4-1.4-.5v-.6h6ZM354.8,35.7c.7,0,1.2.2,1.7.7.5.5.7,1,.7,1.7s-.2,1.2-.7,1.7c-.5.5-1,.7-1.7.7s-1.2-.2-1.7-.7c-.5-.5-.7-1-.7-1.7s.2-1.2.7-1.7c.5-.5,1-.7,1.7-.7Z"/>
        <path class="cls-4" d="M372.3,53.3l.5.4c-.7,1.3-1.5,2.2-2.5,2.8-1,.6-2.1.9-3.2.9-1.9,0-3.4-.7-4.6-2.2-1.1-1.4-1.7-3.2-1.7-5.2s.5-3.7,1.6-5.2c1.3-1.8,3-2.7,5.2-2.7s2.7.4,3.5,1.1c.9.7,1.3,1.6,1.3,2.5s-.2,1.1-.5,1.4c-.4.3-.8.5-1.4.5s-1.1-.2-1.5-.6c-.4-.4-.6-1.1-.7-2.1,0-.6-.2-1.1-.4-1.3-.2-.3-.5-.4-.8-.4-.5,0-.9.3-1.3.8-.5.8-.8,2-.8,3.6s.2,2.6.6,3.9,1,2.2,1.8,2.8c.6.4,1.2.7,2,.7s1-.1,1.4-.4c.5-.2,1-.7,1.6-1.3Z"/>
        <path class="cls-4" d="M380.7,36.2v8.3c.8-.8,1.5-1.4,2.2-1.8.7-.3,1.3-.5,2-.5s1.7.3,2.3.8c.6.5,1.1,1.1,1.3,1.8.2.7.3,1.9.3,3.5v5.6c0,1.1,0,1.8.3,2,.2.3.6.4,1.2.5v.6h-7.3v-.6c.5,0,.9-.3,1.2-.6.2-.3.3-.9.3-2v-6.4c0-1.2,0-1.9-.1-2.2,0-.3-.2-.5-.5-.7-.2-.2-.5-.3-.7-.3-.4,0-.8.1-1.2.4-.4.3-.8.8-1.3,1.5v7.7c0,1,0,1.7.2,1.9.2.3.6.6,1.2.6v.6h-7.3v-.6c.6,0,1-.3,1.3-.6.2-.2.3-.9.3-2v-14.6c0-1.1,0-1.8-.3-2-.2-.3-.6-.4-1.3-.5v-.6h5.8Z"/>
        <path class="cls-4" d="M404.7,49.3h-7.9c0,1.9.6,3.4,1.5,4.5.7.9,1.6,1.3,2.5,1.3s1.2-.2,1.7-.5c.5-.3,1-1,1.6-1.8l.5.3c-.8,1.6-1.6,2.7-2.6,3.4-.9.7-2,1-3.3,1-2.1,0-3.7-.8-4.8-2.5-.9-1.3-1.3-3-1.3-4.9s.6-4.3,1.9-5.7c1.3-1.4,2.8-2.1,4.6-2.1s2.7.6,3.8,1.8c1.1,1.2,1.6,3,1.7,5.3ZM401,48.3c0-1.6,0-2.8-.3-3.4-.2-.6-.5-1.1-.8-1.4-.2-.2-.5-.3-.9-.3-.5,0-1,.3-1.3.8-.6.9-.9,2.2-.9,3.7v.5h4.2Z"/>
      </g>
      <g>
        <path class="cls-2" d="M129.6,67l-6.4,20.6h-3.5l-6.4-20.6h-2v-1.7h7.4v1.7h-2.4l4.2,14c.2.6.4,1.3.5,2,.2.7.3,1.2.4,1.7,0-.2,0-.4.2-.8,0-.3.2-.7.2-1,0-.4.2-.7.3-1,0-.3.2-.6.2-.9l4.2-14h-2.4v-1.7h7.4v1.7h-2Z"/>
        <path class="cls-2" d="M134.1,80.6c0,.9.1,1.7.3,2.3.2.6.5,1.1.9,1.6.4.4.8.7,1.3.9.5.2,1,.3,1.6.3s1.5,0,2.3-.3c.8-.2,1.5-.4,2.2-.5l.6,1.9c-.6.2-1.3.5-2.2.8-.9.3-1.9.4-3,.4s-1.6-.1-2.4-.3c-.8-.2-1.5-.6-2.1-1.2-.6-.6-1.1-1.3-1.5-2.3-.4-1-.6-2.2-.6-3.6s.2-2.3.5-3.3c.3-.9.8-1.7,1.4-2.3.6-.6,1.3-1.1,2-1.4.8-.3,1.6-.5,2.5-.5,1.9,0,3.3.7,4.3,2,1,1.3,1.5,3.2,1.5,5.6h-9.4ZM140.7,78.8c0-1.1-.3-2-.8-2.7-.5-.7-1.3-1.1-2.2-1.1s-1.6.3-2.2.9c-.6.6-1,1.5-1.2,2.8h6.5Z"/>
        <path class="cls-2" d="M155.2,75.8c-.1,0-.3,0-.5,0-.2,0-.4,0-.5,0-.5,0-1.1.2-1.7.5-.6.4-1.2.9-1.7,1.5v8.2h2.9v1.7h-7.9v-1.7h2.3v-10.9h-2.3v-1.7h4.7v2.2c.4-.7.9-1.2,1.5-1.7.6-.4,1.3-.6,2.1-.6s.4,0,.6,0c.2,0,.4,0,.6.1v2.5Z"/>
        <path class="cls-2" d="M166.3,87.4c-.4.1-.9.2-1.5.3-.6.1-1.1.2-1.7.2-2.3,0-3.4-1.3-3.4-3.9v-8.8h-2.5v-1.9h2.5v-4h2.6v4h3.6v1.9h-3.6v8.7c0,.7.1,1.2.4,1.5.3.3.6.4,1,.4s.6,0,1,0c.4,0,.8-.1,1.2-.2l.3,1.8Z"/>
        <path class="cls-2" d="M177.7,75.8c-.1,0-.3,0-.5,0-.2,0-.4,0-.5,0-.5,0-1.1.2-1.7.5-.6.4-1.2.9-1.7,1.5v8.2h2.9v1.7h-7.9v-1.7h2.3v-10.9h-2.3v-1.7h4.7v2.2c.4-.7.9-1.2,1.5-1.7.6-.4,1.3-.6,2.1-.6s.4,0,.6,0c.2,0,.4,0,.6.1v2.5Z"/>
        <path class="cls-2" d="M191,87.6c-.7,0-1.3-.1-1.7-.3-.5-.2-.8-.7-1-1.5-.4.5-1,1-1.7,1.5-.7.4-1.6.7-2.5.7s-1.2,0-1.7-.2c-.5-.1-1-.3-1.4-.6-.4-.3-.7-.7-1-1.2-.2-.5-.4-1.2-.4-2s.1-1.6.4-2.1c.3-.6.7-1,1.2-1.3.5-.3,1.1-.5,1.7-.7.7-.1,1.4-.2,2.1-.2h2.9v-1.6c0-.9-.2-1.6-.5-2-.4-.4-1-.7-1.9-.7s-.8,0-1.2,0c-.4,0-.9.1-1.3.2-.4,0-.9.2-1.3.3l-1,.2-.4-2c.7-.2,1.5-.4,2.5-.7,1-.3,2.1-.4,3.3-.4s2.7.4,3.4,1.1c.7.8,1.1,2,1.1,3.7v7.1c0,.3,0,.5.2.7.1.2.4.3.7.3h1.4v1.7h-2ZM188,81.3h-2.7c-1.9,0-2.9.8-2.9,2.3s.2,1.3.5,1.7c.3.3.9.5,1.6.5s1.2-.2,1.8-.6c.6-.4,1.2-.8,1.7-1.4v-2.5Z"/>
        <path class="cls-2" d="M207.4,88.8c0,1.7-.4,3.1-1.2,3.9-.8.9-2.1,1.3-4,1.3s-2.4-.1-3.4-.4c-1.1-.2-2.1-.5-3-.8l.5-1.9c.9.2,1.8.4,2.8.5,1,.2,1.9.2,2.8.2s1.8-.3,2.2-.8c.4-.5.7-1.3.7-2.3v-3.1c-.5.6-1.1,1-1.8,1.4-.7.4-1.6.6-2.6.6-1.8,0-3.1-.6-4.1-1.8-1-1.2-1.4-3-1.4-5.5s.2-2.4.5-3.4c.3-.9.8-1.7,1.4-2.3.6-.6,1.4-1,2.2-1.3.9-.3,1.8-.4,2.8-.4s.7,0,1,0c.4,0,.7,0,1.1.1.4,0,.8.1,1.1.2h2.3v15.5ZM204.7,75.5h-1.1c-.3-.2-.6-.2-1-.2-.4,0-.7,0-1,0-1.3,0-2.3.4-3,1.3-.7.9-1,2.1-1,3.7s.3,3.2.9,3.9c.6.8,1.4,1.2,2.5,1.2s.7,0,1-.2c.3-.1.7-.3,1-.5.3-.2.6-.5.9-.7.3-.3.6-.5.8-.8v-7.7Z"/>
        <path class="cls-2" d="M221.7,83.4c0,.8-.1,1.6-.4,2.1-.3.6-.6,1-1.1,1.4-.5.4-1,.6-1.7.7-.7.1-1.4.2-2.2.2s-1.2,0-1.9,0c-.6,0-1.2-.1-1.7-.2-.6-.1-1.1-.2-1.7-.4v-4.3h2v2.6c.5,0,.9.2,1.4.2.5,0,1,0,1.4,0,.9,0,1.7-.2,2.2-.5.5-.3.8-.8.8-1.5s-.2-1-.6-1.3c-.4-.3-.8-.5-1.4-.7l-2.2-.7c-.5-.1-.9-.3-1.3-.5-.4-.2-.8-.4-1.1-.7-.3-.3-.6-.7-.8-1.1-.2-.5-.3-1-.3-1.7s.1-1.4.4-2c.3-.5.6-1,1.1-1.3.5-.3,1-.5,1.7-.7.7-.1,1.4-.2,2.1-.2s1,0,1.5.1c.5,0,1,.1,1.5.2.5,0,1.1.2,1.6.3v3.9h-2v-2.2c-.2,0-.6,0-1.1-.2s-1,0-1.4,0c-.9,0-1.6.1-2,.4-.4.3-.7.7-.7,1.4s.2,1,.6,1.2c.4.2.9.5,1.6.7l1.9.6c.5.1.9.3,1.3.5.4.2.8.5,1.1.8.3.3.6.7.8,1.1.2.4.3,1,.3,1.6Z"/>
        <path class="cls-2" d="M237.2,88.8c0,1.7-.4,3.1-1.2,3.9-.8.9-2.1,1.3-4,1.3s-2.4-.1-3.4-.4c-1.1-.2-2.1-.5-3-.8l.5-1.9c.9.2,1.8.4,2.8.5,1,.2,1.9.2,2.8.2s1.8-.3,2.2-.8c.4-.5.7-1.3.7-2.3v-3.1c-.5.6-1.1,1-1.8,1.4-.7.4-1.6.6-2.6.6-1.8,0-3.1-.6-4.1-1.8-1-1.2-1.4-3-1.4-5.5s.2-2.4.5-3.4.8-1.7,1.4-2.3c.6-.6,1.4-1,2.2-1.3.9-.3,1.8-.4,2.8-.4s.6,0,1,0c.4,0,.7,0,1.1.1.4,0,.8.1,1.1.2h2.3v15.5ZM234.5,75.5h-1.1c-.3-.2-.6-.2-1-.2-.4,0-.7,0-1,0-1.3,0-2.3.4-3,1.3-.7.9-1,2.1-1,3.7s.3,3.2.9,3.9c.6.8,1.4,1.2,2.5,1.2s.7,0,1-.2c.3-.1.7-.3,1-.5.3-.2.6-.5.9-.7.3-.3.6-.5.8-.8v-7.7Z"/>
        <path class="cls-2" d="M243.8,80.6c0,.9.1,1.7.3,2.3.2.6.5,1.1.9,1.6.4.4.8.7,1.3.9.5.2,1,.3,1.6.3s1.5,0,2.3-.3c.8-.2,1.5-.4,2.2-.5l.6,1.9c-.6.2-1.3.5-2.2.8-.9.3-1.9.4-3,.4s-1.6-.1-2.4-.3c-.8-.2-1.5-.6-2.1-1.2-.6-.6-1.1-1.3-1.5-2.3-.4-1-.6-2.2-.6-3.6s.2-2.3.5-3.3c.3-.9.8-1.7,1.4-2.3.6-.6,1.3-1.1,2-1.4.8-.3,1.6-.5,2.5-.5,1.9,0,3.3.7,4.3,2,1,1.3,1.5,3.2,1.5,5.6h-9.4ZM250.4,78.8c0-1.1-.3-2-.8-2.7-.5-.7-1.3-1.1-2.2-1.1s-1.6.3-2.2.9c-.6.6-1,1.5-1.2,2.8h6.5Z"/>
        <path class="cls-2" d="M275.8,87.6v-8.8c0-.5,0-1-.1-1.4,0-.4-.2-.8-.4-1.1-.2-.3-.4-.5-.7-.7-.3-.2-.7-.2-1.2-.2s-.8,0-1.1.2c-.4.2-.7.3-1.1.6-.3.2-.7.5-.9.8-.3.3-.5.6-.8.8v8.1h2.3v1.7h-5v-8.8c0-.5,0-1-.1-1.4,0-.4-.2-.8-.4-1.1-.2-.3-.4-.5-.7-.7-.3-.2-.7-.2-1.2-.2s-.8,0-1.1.2c-.4.1-.7.3-1.1.6-.3.2-.7.5-.9.7-.3.3-.5.5-.8.8v8.2h2.3v1.7h-7.3v-1.7h2.3v-10.9h-2.3v-1.7h4.7v2.2c.5-.7,1.2-1.3,2-1.8.8-.5,1.7-.8,2.8-.8s2,.2,2.6.7c.6.5,1.1,1.2,1.4,2,.3-.4.6-.7.9-1,.3-.3.7-.6,1.1-.9.4-.2.8-.5,1.3-.6.5-.2,1-.2,1.6-.2s1.5.1,2.1.4c.6.3,1,.6,1.4,1.1.4.5.6,1.1.8,1.8.2.7.2,1.5.2,2.3v7.3h2.3v1.7h-5Z"/>
        <path class="cls-2" d="M285.4,80.6c0,.9.1,1.7.3,2.3.2.6.5,1.1.9,1.6.4.4.8.7,1.3.9.5.2,1,.3,1.6.3s1.5,0,2.3-.3c.8-.2,1.5-.4,2.2-.5l.6,1.9c-.6.2-1.3.5-2.2.8-.9.3-1.9.4-3,.4s-1.6-.1-2.4-.3c-.8-.2-1.5-.6-2.1-1.2-.6-.6-1.1-1.3-1.5-2.3-.4-1-.6-2.2-.6-3.6s.2-2.3.5-3.3c.3-.9.8-1.7,1.4-2.3.6-.6,1.3-1.1,2-1.4.8-.3,1.6-.5,2.5-.5,1.9,0,3.3.7,4.3,2,1,1.3,1.5,3.2,1.5,5.6h-9.4ZM291.9,78.8c0-1.1-.3-2-.8-2.7-.5-.7-1.3-1.1-2.2-1.1s-1.6.3-2.2.9c-.6.6-1,1.5-1.2,2.8h6.5Z"/>
        <path class="cls-2" d="M297,87.6v-1.7h2.3v-10.9h-2.3v-1.7h5v12.6h2.3v1.7h-7.3ZM302.3,68.9c0,.5-.2.9-.5,1.2-.3.3-.7.5-1.1.5s-.8-.1-1.2-.5c-.3-.3-.5-.7-.5-1.2s.2-.9.5-1.2c.3-.3.7-.4,1.2-.4s.8.1,1.1.4c.3.3.5.7.5,1.2Z"/>
        <path class="cls-2" d="M317.9,87.6v-9.2c0-1-.2-1.8-.6-2.3-.4-.5-1.1-.7-2.1-.7s-.8,0-1.1.2c-.4.1-.7.3-1.1.6-.3.2-.7.5-.9.7-.3.3-.5.5-.8.8v8.2h2.3v1.7h-7.3v-1.7h2.3v-10.9h-2.3v-1.7h4.7v2.2c.5-.7,1.2-1.3,2-1.8.8-.5,1.7-.8,2.8-.8,1.6,0,2.8.5,3.6,1.4.8.9,1.2,2.2,1.2,3.9v7.6h2.3v1.7h-5Z"/>
        <path class="cls-2" d="M335.7,83.4c0,.8-.1,1.6-.4,2.1-.3.6-.6,1-1.1,1.4-.5.4-1,.6-1.7.7-.7.1-1.4.2-2.2.2s-1.2,0-1.9,0c-.6,0-1.2-.1-1.7-.2-.6-.1-1.1-.2-1.7-.4v-4.3h2v2.6c.5,0,.9.2,1.4.2.5,0,1,0,1.3,0,.9,0,1.7-.2,2.2-.5.5-.3.8-.8.8-1.5s-.2-1-.6-1.3c-.4-.3-.8-.5-1.4-.7l-2.2-.7c-.5-.1-.9-.3-1.3-.5-.4-.2-.8-.4-1.1-.7-.3-.3-.6-.7-.8-1.1-.2-.5-.3-1-.3-1.7s.1-1.4.4-2c.3-.5.6-1,1.1-1.3.5-.3,1-.5,1.7-.7.7-.1,1.4-.2,2.1-.2s1,0,1.5.1c.5,0,1,.1,1.5.2.5,0,1.1.2,1.6.3v3.9h-2v-2.2c-.2,0-.6,0-1.1-.2-.5,0-1,0-1.4,0-.9,0-1.6.1-2,.4-.4.3-.7.7-.7,1.4s.2,1,.6,1.2c.4.2.9.5,1.6.7l1.9.6c.5.1.9.3,1.3.5.4.2.8.5,1.1.8.3.3.6.7.8,1.1.2.4.3,1,.3,1.6Z"/>
        <path class="cls-2" d="M349.6,86.8c-.6.2-1.2.5-2.1.8-.8.3-1.7.4-2.7.4s-1.6-.1-2.4-.4c-.7-.2-1.4-.7-2-1.2-.6-.6-1-1.3-1.4-2.3-.3-1-.5-2.1-.5-3.6s.2-2.4.5-3.4c.4-.9.8-1.7,1.4-2.3.6-.6,1.3-1,2-1.3.8-.3,1.6-.4,2.4-.4s.9,0,1.4,0c.5,0,1,.1,1.4.2.5,0,1.1.2,1.6.3v4.3h-2v-2.5c-.3,0-.6,0-.9-.1-.3,0-.7,0-1.1,0s-1,0-1.5.3c-.5.2-.9.5-1.2.9-.4.4-.6.9-.8,1.6-.2.7-.3,1.5-.3,2.5,0,1.9.4,3.2,1.1,4,.7.8,1.6,1.2,2.6,1.2s.6,0,1,0c.4,0,.7-.1,1.1-.2.4,0,.7-.2,1-.3.3,0,.6-.2.9-.3l.6,1.8Z"/>
        <path class="cls-2" d="M363.3,87.6v-9.2c0-1-.2-1.8-.6-2.3-.4-.5-1.1-.7-2.1-.7s-.8,0-1.1.2c-.4.1-.7.3-1.1.6-.3.2-.7.5-.9.7-.3.3-.6.5-.8.8v8.2h2.3v1.7h-7.3v-1.7h2.3v-18.9h-2.3v-1.7h5v10c.5-.6,1.2-1.2,1.9-1.6.7-.4,1.6-.7,2.6-.7,1.6,0,2.8.5,3.6,1.4.8.9,1.2,2.2,1.2,3.9v7.6h2.3v1.7h-5Z"/>
        <path class="cls-2" d="M381.9,87.6c-.7,0-1.3-.1-1.7-.3-.5-.2-.8-.7-1-1.5-.4.5-1,1-1.7,1.5-.7.4-1.6.7-2.5.7s-1.2,0-1.7-.2c-.5-.1-1-.3-1.4-.6-.4-.3-.7-.7-1-1.2-.2-.5-.4-1.2-.4-2s.1-1.6.4-2.1c.3-.6.7-1,1.2-1.3.5-.3,1.1-.5,1.7-.7.7-.1,1.4-.2,2.1-.2h2.9v-1.6c0-.9-.2-1.6-.5-2-.4-.4-1-.7-1.9-.7s-.8,0-1.2,0c-.4,0-.9.1-1.3.2-.4,0-.9.2-1.3.3l-1,.2-.4-2c.7-.2,1.5-.4,2.5-.7,1-.3,2.1-.4,3.3-.4s2.7.4,3.4,1.1c.7.8,1.1,2,1.1,3.7v7.1c0,.3,0,.5.2.7.1.2.4.3.7.3h1.4v1.7h-2ZM378.9,81.3h-2.7c-1.9,0-2.9.8-2.9,2.3s.2,1.3.5,1.7c.3.3.9.5,1.6.5s1.2-.2,1.8-.6c.6-.4,1.2-.8,1.7-1.4v-2.5Z"/>
        <path class="cls-2" d="M395.6,67.5c-.2,0-.4,0-.6,0-.2,0-.5,0-.7-.1-.3,0-.5,0-.8,0-.3,0-.5,0-.7,0-1.3,0-2,.8-2,2.3v3.8h3.3v1.9h-3.3v10.7h2.9v1.7h-7.9v-1.7h2.3v-10.7h-2.3v-1.9h2.3v-3.6c0-1.6.4-2.8,1.2-3.6.8-.8,1.8-1.2,3-1.2s1.4,0,2,.2c.7.2,1.2.3,1.6.4l-.4,2Z"/>
        <path class="cls-2" d="M405.1,87.4c-.4.1-.9.2-1.5.3-.6.1-1.1.2-1.7.2-2.3,0-3.4-1.3-3.4-3.9v-8.8h-2.5v-1.9h2.5v-4h2.6v4h3.6v1.9h-3.6v8.7c0,.7.1,1.2.4,1.5.3.3.6.4,1,.4s.6,0,1,0c.4,0,.8-.1,1.2-.2l.3,1.8Z"/>
      </g>
      <g>
        <path class="cls-4" d="M424.8,81.6h-7.4l-.9,2c-.3.7-.4,1.2-.4,1.7s.2,1,.7,1.3c.3.2,1,.3,2.1.4v.6h-7v-.6c.8-.1,1.4-.4,1.9-.9.5-.5,1.1-1.6,1.8-3.2l7.5-16.7h.3l7.5,17.1c.7,1.6,1.3,2.6,1.8,3.1.3.3.8.5,1.5.6v.6h-10.1v-.6h.4c.8,0,1.4-.1,1.7-.3.2-.2.3-.4.3-.7s0-.4,0-.6c0,0-.2-.5-.5-1.2l-1.1-2.6ZM424.3,80.5l-3.1-7.2-3.2,7.2h6.3Z"/>
        <path class="cls-4" d="M454.2,66.2v7.4h-.6c-.7-2-1.7-3.5-3.1-4.6-1.4-1.1-2.9-1.6-4.5-1.6s-2.9.4-3.9,1.3c-1,.9-1.8,2.1-2.2,3.7-.4,1.6-.6,3.2-.6,4.8s.2,3.8.7,5.3c.5,1.5,1.2,2.6,2.3,3.3,1.1.7,2.3,1.1,3.8,1.1s1,0,1.5-.2c.5-.1,1.1-.3,1.6-.5v-4.3c0-.8,0-1.4-.2-1.6-.1-.2-.3-.5-.7-.7-.4-.2-.8-.3-1.3-.3h-.5v-.6h10.2v.6c-.8,0-1.3.2-1.6.3-.3.2-.5.4-.7.8,0,.2-.1.7-.1,1.4v4.3c-1.3.6-2.7,1-4.2,1.4-1.4.3-2.9.5-4.5.5s-3.6-.3-4.9-.8c-1.3-.5-2.5-1.2-3.5-2.1-1-.9-1.8-1.9-2.4-3-.7-1.4-1.1-3-1.1-4.8,0-3.1,1.1-5.8,3.3-8,2.2-2.2,5-3.3,8.3-3.3s2,0,2.8.2c.5,0,1.2.3,2.2.7,1,.4,1.6.6,1.8.6.3,0,.6-.1.8-.3.2-.2.5-.6.7-1.2h.6Z"/>
      </g>
    </g>
  </g>
</svg>